<?xml version="1.0" encoding="utf-8"?>
<!-- Generator: Adobe Illustrator 27.5.0, SVG Export Plug-In . SVG Version: 6.00 Build 0)  -->
<svg version="1.1" xmlns="http://www.w3.org/2000/svg" xmlns:xlink="http://www.w3.org/1999/xlink" x="0px" y="0px"
	 viewBox="0 0 700 500" style="enable-background:new 0 0 700 500;" xml:space="preserve">
<g id="Background">
</g>
<g id="Objects">
	<path style="fill:#E6E7E8;" d="M604.328,398.896c-0.573,0.563-1.153,1.109-1.748,1.646c0,0-455.261,0-455.825,0
		c-2.5,0-5.032-8.294-6.363-10.026c-21.223-27.607-57.702-39.232-70.604-73.927c-6.42-17.264-4.378-38.628,8.823-51.473
		c11.556-11.244,28.877-13.967,44.998-14.22c16.762-0.263,37.788,3.186,52.694-6.208c11.837-7.459,12.5-20.626,9.689-33.073
		c-4.085-18.087-12.319-35.472-13.642-54.115c-0.988-13.92,2.364-28.77,12.05-38.817c20.798-21.575,68.032-22.06,94.945-16.004
		c20.304,4.568,40,16.875,48.814,36.319c8.563,18.89,5.596,42.687,19.915,59.004c12.504,14.249,34.648,16.299,52.653,10.366
		c18.005-5.933,33.035-18.283,48.168-29.701c20.835-15.72,53.347-37.298,79.42-20.034c10.122,6.702,16.371,19.413,14.089,31.335
		c-1.798,9.392-8.223,17.09-13.617,24.985c-5.394,7.896-10.088,17.425-7.779,26.704c1.858,7.468,8.052,13.253,15.016,16.529
		c14.426,6.785,72.949,14.714,49.933,43.292c-5.204,6.461-13.138,9.929-20.36,14.011c-20.472,11.57-20.08,33.532,6.128,34.06
		c14.09,0.285,30.561-2.805,40.029,6.525C622.411,366.58,616.409,387.046,604.328,398.896z"/>
	<g>
		<g>
			<rect x="328.184" y="253.012" style="fill:#3C74DE;" width="53.75" height="148.062"/>
			<rect x="333.334" y="264.148" style="fill:#FFFFFF;" width="10.943" height="5.656"/>
			<rect x="347.639" y="264.148" style="fill:#FFFFFF;" width="10.943" height="5.656"/>
			<rect x="361.944" y="264.148" style="fill:#FFFFFF;" width="10.943" height="5.656"/>
			<rect x="333.334" y="276.849" style="fill:#FFFFFF;" width="10.943" height="5.656"/>
			<rect x="347.639" y="276.849" style="fill:#FFFFFF;" width="10.943" height="5.656"/>
			<rect x="361.944" y="276.849" style="fill:#FFFFFF;" width="10.943" height="5.656"/>
			<rect x="333.334" y="289.549" style="fill:#FFFFFF;" width="10.943" height="5.656"/>
			<rect x="347.639" y="289.549" style="fill:#FFFFFF;" width="10.943" height="5.656"/>
			<rect x="361.944" y="289.549" style="fill:#FFFFFF;" width="10.943" height="5.656"/>
			<rect x="333.334" y="302.249" style="fill:#FFFFFF;" width="10.943" height="5.656"/>
			<rect x="347.639" y="302.249" style="fill:#FFFFFF;" width="10.943" height="5.656"/>
			<rect x="361.944" y="302.249" style="fill:#FFFFFF;" width="10.943" height="5.656"/>
			<rect x="333.334" y="314.95" style="fill:#FFFFFF;" width="10.943" height="5.655"/>
			<rect x="347.639" y="314.95" style="fill:#FFFFFF;" width="10.943" height="5.655"/>
			<rect x="361.944" y="314.95" style="fill:#FFFFFF;" width="10.943" height="5.655"/>
			<rect x="358.582" y="253.012" style="opacity:0.4;fill:#255FCC;" width="23.352" height="148.06"/>
			<rect x="202.158" y="242.801" style="fill:#3C74DE;" width="64.629" height="158.273"/>
			<rect x="208.35" y="254.706" style="fill:#FFFFFF;" width="13.158" height="6.046"/>
			<rect x="225.55" y="254.706" style="fill:#FFFFFF;" width="13.158" height="6.046"/>
			<rect x="242.75" y="254.706" style="fill:#FFFFFF;" width="13.158" height="6.046"/>
			<rect x="208.35" y="268.282" style="fill:#FFFFFF;" width="13.158" height="6.046"/>
			<rect x="225.55" y="268.282" style="fill:#FFFFFF;" width="13.158" height="6.046"/>
			<rect x="242.75" y="268.282" style="fill:#FFFFFF;" width="13.158" height="6.046"/>
			<rect x="208.35" y="281.858" style="fill:#FFFFFF;" width="13.158" height="6.046"/>
			<rect x="225.55" y="281.858" style="fill:#FFFFFF;" width="13.158" height="6.046"/>
			<rect x="242.75" y="281.858" style="fill:#FFFFFF;" width="13.158" height="6.046"/>
			<rect x="208.35" y="295.434" style="fill:#FFFFFF;" width="13.158" height="6.046"/>
			<rect x="225.55" y="295.434" style="fill:#FFFFFF;" width="13.158" height="6.046"/>
			<rect x="242.75" y="295.434" style="fill:#FFFFFF;" width="13.158" height="6.046"/>
			<rect x="208.35" y="309.01" style="fill:#FFFFFF;" width="13.158" height="6.046"/>
			<rect x="225.55" y="309.01" style="fill:#FFFFFF;" width="13.158" height="6.046"/>
			<rect x="242.75" y="309.01" style="fill:#FFFFFF;" width="13.158" height="6.046"/>
			<rect x="229.936" y="232.426" style="fill:#3C74DE;" width="33.368" height="10.375"/>
			<rect x="238.708" y="242.802" style="opacity:0.4;fill:#255FCC;" width="28.079" height="158.27"/>
			<rect x="229.936" y="239.538" style="opacity:0.4;fill:#255FCC;" width="33.367" height="3.263"/>
			<g>
				<rect x="252.146" y="181.84" style="fill:#3C74DE;" width="64.629" height="219.234"/>
				<rect x="260.339" y="191.149" style="fill:#FFFFFF;" width="3.612" height="147.323"/>
				<rect x="269.539" y="191.149" style="fill:#FFFFFF;" width="3.612" height="147.323"/>
				<rect x="278.739" y="191.149" style="fill:#FFFFFF;" width="3.612" height="147.323"/>
				<rect x="287.939" y="191.149" style="fill:#FFFFFF;" width="3.612" height="147.323"/>
				<rect x="297.139" y="191.149" style="fill:#FFFFFF;" width="3.612" height="147.323"/>
				<rect x="306.339" y="191.149" style="fill:#FFFFFF;" width="3.612" height="147.323"/>
				<polygon style="fill:#3C74DE;" points="283.336,181.768 310.942,181.768 310.942,159.86 294.43,159.86 				"/>
				<polygon style="opacity:0.4;fill:#255FCC;" points="283.336,181.767 310.942,181.767 310.942,175.795 286.359,175.795 				"/>
			</g>
			<rect x="367.705" y="197.089" style="fill:#3C74DE;" width="53.75" height="203.985"/>
			<rect x="372.855" y="212.432" style="fill:#FFFFFF;" width="10.943" height="7.792"/>
			<rect x="387.16" y="212.432" style="fill:#FFFFFF;" width="10.943" height="7.792"/>
			<rect x="401.465" y="212.432" style="fill:#FFFFFF;" width="10.943" height="7.792"/>
			<rect x="372.855" y="229.929" style="fill:#FFFFFF;" width="10.943" height="7.792"/>
			<rect x="387.16" y="229.929" style="fill:#FFFFFF;" width="10.943" height="7.792"/>
			<rect x="401.465" y="229.929" style="fill:#FFFFFF;" width="10.943" height="7.792"/>
			<rect x="372.855" y="247.426" style="fill:#FFFFFF;" width="10.943" height="7.792"/>
			<rect x="387.16" y="247.426" style="fill:#FFFFFF;" width="10.943" height="7.792"/>
			<rect x="401.465" y="247.426" style="fill:#FFFFFF;" width="10.943" height="7.792"/>
			<rect x="372.855" y="264.923" style="fill:#FFFFFF;" width="10.943" height="7.792"/>
			<rect x="387.16" y="264.923" style="fill:#FFFFFF;" width="10.943" height="7.792"/>
			<rect x="401.465" y="264.923" style="fill:#FFFFFF;" width="10.943" height="7.792"/>
			<rect x="372.855" y="282.421" style="fill:#FFFFFF;" width="10.943" height="7.792"/>
			<rect x="387.16" y="282.421" style="fill:#FFFFFF;" width="10.943" height="7.792"/>
			<rect x="401.465" y="282.421" style="fill:#FFFFFF;" width="10.943" height="7.792"/>
			<rect x="376.523" y="184.361" style="fill:#3C74DE;" width="41.56" height="12.728"/>
			<rect x="383.747" y="172.417" style="fill:#3C74DE;" width="27.112" height="12.728"/>
			<rect x="395.873" y="156.291" style="fill:#3C74DE;" width="2.86" height="16.127"/>
			<rect x="376.523" y="194.649" style="opacity:0.4;fill:#255FCC;" width="41.56" height="2.44"/>
			<rect x="383.747" y="182.296" style="opacity:0.4;fill:#255FCC;" width="27.112" height="2.065"/>
			<polygon style="opacity:0.4;fill:#255FCC;" points="421.455,197.087 421.455,401.074 408.809,401.074 408.809,197.087 
				405.439,197.087 405.439,184.361 398.213,184.361 398.213,172.416 410.86,172.416 410.86,184.361 418.082,184.361 
				418.082,197.087 			"/>
		</g>
		<g>
			
				<rect x="464.879" y="312.73" transform="matrix(-1 -1.224647e-16 1.224647e-16 -1 969.3121 713.806)" style="fill:#3C74DE;" width="39.554" height="88.345"/>
			
				<rect x="492.591" y="319.375" transform="matrix(-1 -1.224647e-16 1.224647e-16 -1 993.2339 642.1255)" style="fill:#FFFFFF;" width="8.053" height="3.375"/>
			
				<rect x="482.064" y="319.375" transform="matrix(-1 -1.224647e-16 1.224647e-16 -1 972.1807 642.1255)" style="fill:#FFFFFF;" width="8.053" height="3.375"/>
			
				<rect x="471.537" y="319.375" transform="matrix(-1 -1.224647e-16 1.224647e-16 -1 951.1277 642.1255)" style="fill:#FFFFFF;" width="8.053" height="3.375"/>
			
				<rect x="492.591" y="326.953" transform="matrix(-1 -1.224647e-16 1.224647e-16 -1 993.2339 657.2814)" style="fill:#FFFFFF;" width="8.053" height="3.375"/>
			
				<rect x="482.064" y="326.953" transform="matrix(-1 -1.224647e-16 1.224647e-16 -1 972.1807 657.2814)" style="fill:#FFFFFF;" width="8.053" height="3.375"/>
			
				<rect x="471.537" y="326.953" transform="matrix(-1 -1.224647e-16 1.224647e-16 -1 951.1277 657.2814)" style="fill:#FFFFFF;" width="8.053" height="3.375"/>
			
				<rect x="492.591" y="334.531" transform="matrix(-1 -1.224647e-16 1.224647e-16 -1 993.2339 672.4373)" style="fill:#FFFFFF;" width="8.053" height="3.375"/>
			
				<rect x="482.064" y="334.531" transform="matrix(-1 -1.224647e-16 1.224647e-16 -1 972.1807 672.4373)" style="fill:#FFFFFF;" width="8.053" height="3.375"/>
			
				<rect x="471.537" y="334.531" transform="matrix(-1 -1.224647e-16 1.224647e-16 -1 951.1277 672.4373)" style="fill:#FFFFFF;" width="8.053" height="3.375"/>
			
				<rect x="492.591" y="342.109" transform="matrix(-1 -1.224647e-16 1.224647e-16 -1 993.2339 687.5933)" style="fill:#FFFFFF;" width="8.053" height="3.375"/>
			
				<rect x="482.064" y="342.109" transform="matrix(-1 -1.224647e-16 1.224647e-16 -1 972.1807 687.5933)" style="fill:#FFFFFF;" width="8.053" height="3.375"/>
			
				<rect x="471.537" y="342.109" transform="matrix(-1 -1.224647e-16 1.224647e-16 -1 951.1277 687.5933)" style="fill:#FFFFFF;" width="8.053" height="3.375"/>
			
				<rect x="492.591" y="349.687" transform="matrix(-1 -1.224647e-16 1.224647e-16 -1 993.2339 702.7492)" style="fill:#FFFFFF;" width="8.053" height="3.375"/>
			
				<rect x="482.064" y="349.687" transform="matrix(-1 -1.224647e-16 1.224647e-16 -1 972.1807 702.7492)" style="fill:#FFFFFF;" width="8.053" height="3.375"/>
			
				<rect x="471.537" y="349.687" transform="matrix(-1 -1.224647e-16 1.224647e-16 -1 951.1277 702.7492)" style="fill:#FFFFFF;" width="8.053" height="3.375"/>
			<rect x="464.88" y="312.731" style="opacity:0.4;fill:#255FCC;" width="17.184" height="88.344"/>
			
				<rect x="549.614" y="306.638" transform="matrix(-1 -1.224647e-16 1.224647e-16 -1 1146.7869 707.7136)" style="fill:#3C74DE;" width="47.559" height="94.437"/>
			
				<rect x="582.934" y="313.741" transform="matrix(-1 -1.224647e-16 1.224647e-16 -1 1175.5502 631.0897)" style="fill:#FFFFFF;" width="9.683" height="3.607"/>
			
				<rect x="570.277" y="313.741" transform="matrix(-1 -1.224647e-16 1.224647e-16 -1 1150.236 631.0897)" style="fill:#FFFFFF;" width="9.683" height="3.607"/>
			
				<rect x="557.62" y="313.741" transform="matrix(-1 -1.224647e-16 1.224647e-16 -1 1124.9216 631.0897)" style="fill:#FFFFFF;" width="9.683" height="3.607"/>
			
				<rect x="582.934" y="321.842" transform="matrix(-1 -1.224647e-16 1.224647e-16 -1 1175.5502 647.2909)" style="fill:#FFFFFF;" width="9.683" height="3.607"/>
			
				<rect x="570.277" y="321.842" transform="matrix(-1 -1.224647e-16 1.224647e-16 -1 1150.236 647.2909)" style="fill:#FFFFFF;" width="9.683" height="3.607"/>
			
				<rect x="557.62" y="321.842" transform="matrix(-1 -1.224647e-16 1.224647e-16 -1 1124.9216 647.2909)" style="fill:#FFFFFF;" width="9.683" height="3.607"/>
			
				<rect x="582.934" y="329.942" transform="matrix(-1 -1.224647e-16 1.224647e-16 -1 1175.5502 663.492)" style="fill:#FFFFFF;" width="9.683" height="3.607"/>
			
				<rect x="570.277" y="329.942" transform="matrix(-1 -1.224647e-16 1.224647e-16 -1 1150.236 663.492)" style="fill:#FFFFFF;" width="9.683" height="3.607"/>
			
				<rect x="557.62" y="329.942" transform="matrix(-1 -1.224647e-16 1.224647e-16 -1 1124.9216 663.492)" style="fill:#FFFFFF;" width="9.683" height="3.607"/>
			
				<rect x="582.934" y="338.043" transform="matrix(-1 -1.224647e-16 1.224647e-16 -1 1175.5502 679.6932)" style="fill:#FFFFFF;" width="9.683" height="3.607"/>
			
				<rect x="570.277" y="338.043" transform="matrix(-1 -1.224647e-16 1.224647e-16 -1 1150.236 679.6932)" style="fill:#FFFFFF;" width="9.683" height="3.607"/>
			
				<rect x="557.62" y="338.043" transform="matrix(-1 -1.224647e-16 1.224647e-16 -1 1124.9216 679.6932)" style="fill:#FFFFFF;" width="9.683" height="3.607"/>
			
				<rect x="582.934" y="346.143" transform="matrix(-1 -1.224647e-16 1.224647e-16 -1 1175.5502 695.8943)" style="fill:#FFFFFF;" width="9.683" height="3.607"/>
			
				<rect x="570.277" y="346.143" transform="matrix(-1 -1.224647e-16 1.224647e-16 -1 1150.236 695.8943)" style="fill:#FFFFFF;" width="9.683" height="3.607"/>
			
				<rect x="557.62" y="346.143" transform="matrix(-1 -1.224647e-16 1.224647e-16 -1 1124.9216 695.8943)" style="fill:#FFFFFF;" width="9.683" height="3.607"/>
			
				<rect x="552.177" y="300.447" transform="matrix(-1 -1.224647e-16 1.224647e-16 -1 1128.9084 607.0857)" style="fill:#3C74DE;" width="24.555" height="6.191"/>
			<rect x="549.614" y="306.639" style="opacity:0.4;fill:#255FCC;" width="20.662" height="94.436"/>
			<rect x="552.178" y="304.691" style="opacity:0.4;fill:#255FCC;" width="24.554" height="1.947"/>
			<g>
				
					<rect x="512.829" y="270.264" transform="matrix(-1 -1.224647e-16 1.224647e-16 -1 1073.2173 671.3394)" style="fill:#3C74DE;" width="47.559" height="130.812"/>
				
					<rect x="551.701" y="275.819" transform="matrix(-1 -1.224647e-16 1.224647e-16 -1 1106.0601 639.5411)" style="fill:#FFFFFF;" width="2.658" height="87.904"/>
				
					<rect x="544.931" y="275.819" transform="matrix(-1 -1.224647e-16 1.224647e-16 -1 1092.5199 639.5411)" style="fill:#FFFFFF;" width="2.658" height="87.904"/>
				
					<rect x="538.161" y="275.819" transform="matrix(-1 -1.224647e-16 1.224647e-16 -1 1078.9795 639.5411)" style="fill:#FFFFFF;" width="2.658" height="87.904"/>
				
					<rect x="531.391" y="275.819" transform="matrix(-1 -1.224647e-16 1.224647e-16 -1 1065.4393 639.5411)" style="fill:#FFFFFF;" width="2.658" height="87.904"/>
				
					<rect x="524.621" y="275.819" transform="matrix(-1 -1.224647e-16 1.224647e-16 -1 1051.899 639.5411)" style="fill:#FFFFFF;" width="2.658" height="87.904"/>
				
					<rect x="517.85" y="275.819" transform="matrix(-1 -1.224647e-16 1.224647e-16 -1 1038.3588 639.5411)" style="fill:#FFFFFF;" width="2.658" height="87.904"/>
				<polygon style="fill:#3C74DE;" points="537.436,270.221 517.121,270.221 517.121,257.149 529.272,257.149 				"/>
				<polygon style="opacity:0.4;fill:#255FCC;" points="537.436,270.221 517.121,270.221 517.121,266.657 535.212,266.657 				"/>
			</g>
			
				<rect x="435.797" y="279.363" transform="matrix(-1 -1.224647e-16 1.224647e-16 -1 911.147 680.4383)" style="fill:#3C74DE;" width="39.554" height="121.713"/>
			
				<rect x="463.508" y="288.517" transform="matrix(-1 -1.224647e-16 1.224647e-16 -1 935.0685 581.684)" style="fill:#FFFFFF;" width="8.053" height="4.649"/>
			
				<rect x="452.981" y="288.517" transform="matrix(-1 -1.224647e-16 1.224647e-16 -1 914.0153 581.684)" style="fill:#FFFFFF;" width="8.053" height="4.649"/>
			
				<rect x="442.455" y="288.517" transform="matrix(-1 -1.224647e-16 1.224647e-16 -1 892.9622 581.684)" style="fill:#FFFFFF;" width="8.053" height="4.649"/>
			
				<rect x="463.508" y="298.958" transform="matrix(-1 -1.224647e-16 1.224647e-16 -1 935.0685 602.5643)" style="fill:#FFFFFF;" width="8.053" height="4.649"/>
			
				<rect x="452.981" y="298.958" transform="matrix(-1 -1.224647e-16 1.224647e-16 -1 914.0153 602.5643)" style="fill:#FFFFFF;" width="8.053" height="4.649"/>
			
				<rect x="442.455" y="298.958" transform="matrix(-1 -1.224647e-16 1.224647e-16 -1 892.9622 602.5643)" style="fill:#FFFFFF;" width="8.053" height="4.649"/>
			
				<rect x="463.508" y="309.398" transform="matrix(-1 -1.224647e-16 1.224647e-16 -1 935.0685 623.4447)" style="fill:#FFFFFF;" width="8.053" height="4.649"/>
			
				<rect x="452.981" y="309.398" transform="matrix(-1 -1.224647e-16 1.224647e-16 -1 914.0153 623.4447)" style="fill:#FFFFFF;" width="8.053" height="4.649"/>
			
				<rect x="442.455" y="309.398" transform="matrix(-1 -1.224647e-16 1.224647e-16 -1 892.9622 623.4447)" style="fill:#FFFFFF;" width="8.053" height="4.649"/>
			
				<rect x="463.508" y="319.838" transform="matrix(-1 -1.224647e-16 1.224647e-16 -1 935.0685 644.325)" style="fill:#FFFFFF;" width="8.053" height="4.649"/>
			
				<rect x="452.981" y="319.838" transform="matrix(-1 -1.224647e-16 1.224647e-16 -1 914.0153 644.325)" style="fill:#FFFFFF;" width="8.053" height="4.649"/>
			
				<rect x="442.455" y="319.838" transform="matrix(-1 -1.224647e-16 1.224647e-16 -1 892.9622 644.325)" style="fill:#FFFFFF;" width="8.053" height="4.649"/>
			
				<rect x="463.508" y="330.278" transform="matrix(-1 -1.224647e-16 1.224647e-16 -1 935.0685 665.2053)" style="fill:#FFFFFF;" width="8.053" height="4.649"/>
			
				<rect x="452.981" y="330.278" transform="matrix(-1 -1.224647e-16 1.224647e-16 -1 914.0153 665.2053)" style="fill:#FFFFFF;" width="8.053" height="4.649"/>
			
				<rect x="442.455" y="330.278" transform="matrix(-1 -1.224647e-16 1.224647e-16 -1 892.9622 665.2053)" style="fill:#FFFFFF;" width="8.053" height="4.649"/>
			
				<rect x="438.278" y="271.768" transform="matrix(-1 -1.224647e-16 1.224647e-16 -1 907.14 551.1313)" style="fill:#3C74DE;" width="30.583" height="7.594"/>
			
				<rect x="443.594" y="264.642" transform="matrix(-1 -1.224647e-16 1.224647e-16 -1 907.1401 536.8779)" style="fill:#3C74DE;" width="19.951" height="7.594"/>
			
				<rect x="452.518" y="255.02" transform="matrix(-1 -1.224647e-16 1.224647e-16 -1 907.1401 519.6613)" style="fill:#3C74DE;" width="2.105" height="9.622"/>
			
				<rect x="438.278" y="277.907" transform="matrix(-1 -1.224647e-16 1.224647e-16 -1 907.14 557.27)" style="opacity:0.4;fill:#255FCC;" width="30.583" height="1.456"/>
			
				<rect x="443.594" y="270.536" transform="matrix(-1 -1.224647e-16 1.224647e-16 -1 907.1401 542.305)" style="opacity:0.4;fill:#255FCC;" width="19.951" height="1.232"/>
			<polygon style="opacity:0.4;fill:#255FCC;" points="435.797,279.362 435.797,401.076 445.103,401.076 445.103,279.362 
				447.583,279.362 447.583,271.769 452.9,271.769 452.9,264.641 443.594,264.641 443.594,271.769 438.28,271.769 438.28,279.362 
							"/>
		</g>
		<g>
			<rect x="195.567" y="312.73" style="fill:#3C74DE;" width="39.554" height="88.345"/>
			<rect x="199.357" y="319.375" style="fill:#FFFFFF;" width="8.053" height="3.375"/>
			<rect x="209.883" y="319.375" style="fill:#FFFFFF;" width="8.053" height="3.375"/>
			<rect x="220.41" y="319.375" style="fill:#FFFFFF;" width="8.053" height="3.375"/>
			<rect x="199.357" y="326.953" style="fill:#FFFFFF;" width="8.053" height="3.375"/>
			<rect x="209.883" y="326.953" style="fill:#FFFFFF;" width="8.053" height="3.375"/>
			<rect x="220.41" y="326.953" style="fill:#FFFFFF;" width="8.053" height="3.375"/>
			<rect x="199.357" y="334.531" style="fill:#FFFFFF;" width="8.053" height="3.375"/>
			<rect x="209.883" y="334.531" style="fill:#FFFFFF;" width="8.053" height="3.375"/>
			<rect x="220.41" y="334.531" style="fill:#FFFFFF;" width="8.053" height="3.375"/>
			<rect x="199.357" y="342.109" style="fill:#FFFFFF;" width="8.053" height="3.375"/>
			<rect x="209.883" y="342.109" style="fill:#FFFFFF;" width="8.053" height="3.375"/>
			<rect x="220.41" y="342.109" style="fill:#FFFFFF;" width="8.053" height="3.375"/>
			<rect x="199.357" y="349.687" style="fill:#FFFFFF;" width="8.053" height="3.375"/>
			<rect x="209.883" y="349.687" style="fill:#FFFFFF;" width="8.053" height="3.375"/>
			<rect x="220.41" y="349.687" style="fill:#FFFFFF;" width="8.053" height="3.375"/>
			<rect x="217.936" y="312.731" style="opacity:0.4;fill:#255FCC;" width="17.184" height="88.344"/>
			<rect x="102.827" y="306.638" style="fill:#3C74DE;" width="47.559" height="94.437"/>
			<rect x="107.384" y="313.741" style="fill:#FFFFFF;" width="9.683" height="3.607"/>
			<rect x="120.041" y="313.741" style="fill:#FFFFFF;" width="9.683" height="3.607"/>
			<rect x="132.698" y="313.741" style="fill:#FFFFFF;" width="9.683" height="3.607"/>
			<rect x="107.384" y="321.842" style="fill:#FFFFFF;" width="9.683" height="3.607"/>
			<rect x="120.041" y="321.842" style="fill:#FFFFFF;" width="9.683" height="3.607"/>
			<rect x="132.698" y="321.842" style="fill:#FFFFFF;" width="9.683" height="3.607"/>
			<rect x="107.384" y="329.942" style="fill:#FFFFFF;" width="9.683" height="3.607"/>
			<rect x="120.041" y="329.942" style="fill:#FFFFFF;" width="9.683" height="3.607"/>
			<rect x="132.698" y="329.942" style="fill:#FFFFFF;" width="9.683" height="3.607"/>
			<rect x="107.384" y="338.043" style="fill:#FFFFFF;" width="9.683" height="3.607"/>
			<rect x="120.041" y="338.043" style="fill:#FFFFFF;" width="9.683" height="3.607"/>
			<rect x="132.698" y="338.043" style="fill:#FFFFFF;" width="9.683" height="3.607"/>
			<rect x="107.384" y="346.143" style="fill:#FFFFFF;" width="9.683" height="3.607"/>
			<rect x="120.041" y="346.143" style="fill:#FFFFFF;" width="9.683" height="3.607"/>
			<rect x="132.698" y="346.143" style="fill:#FFFFFF;" width="9.683" height="3.607"/>
			<rect x="123.268" y="300.447" style="fill:#3C74DE;" width="24.555" height="6.191"/>
			<rect x="129.723" y="306.639" style="opacity:0.4;fill:#255FCC;" width="20.662" height="94.436"/>
			<rect x="123.268" y="304.691" style="opacity:0.4;fill:#255FCC;" width="24.554" height="1.947"/>
			<g>
				<rect x="139.612" y="270.264" style="fill:#3C74DE;" width="47.559" height="130.812"/>
				<rect x="145.641" y="275.819" style="fill:#FFFFFF;" width="2.658" height="87.904"/>
				<rect x="152.411" y="275.819" style="fill:#FFFFFF;" width="2.658" height="87.904"/>
				<rect x="159.181" y="275.819" style="fill:#FFFFFF;" width="2.658" height="87.904"/>
				<rect x="165.951" y="275.819" style="fill:#FFFFFF;" width="2.658" height="87.904"/>
				<rect x="172.721" y="275.819" style="fill:#FFFFFF;" width="2.658" height="87.904"/>
				<rect x="179.492" y="275.819" style="fill:#FFFFFF;" width="2.658" height="87.904"/>
				<polygon style="fill:#3C74DE;" points="162.564,270.221 182.879,270.221 182.879,257.149 170.728,257.149 				"/>
				<polygon style="opacity:0.4;fill:#255FCC;" points="162.564,270.221 182.879,270.221 182.879,266.657 164.788,266.657 				"/>
			</g>
			<rect x="224.65" y="279.363" style="fill:#3C74DE;" width="39.554" height="121.713"/>
			<rect x="228.439" y="288.517" style="fill:#FFFFFF;" width="8.053" height="4.649"/>
			<rect x="238.966" y="288.517" style="fill:#FFFFFF;" width="8.053" height="4.649"/>
			<rect x="249.492" y="288.517" style="fill:#FFFFFF;" width="8.053" height="4.649"/>
			<rect x="228.439" y="298.958" style="fill:#FFFFFF;" width="8.053" height="4.649"/>
			<rect x="238.966" y="298.958" style="fill:#FFFFFF;" width="8.053" height="4.649"/>
			<rect x="249.492" y="298.958" style="fill:#FFFFFF;" width="8.053" height="4.649"/>
			<rect x="228.439" y="309.398" style="fill:#FFFFFF;" width="8.053" height="4.649"/>
			<rect x="238.966" y="309.398" style="fill:#FFFFFF;" width="8.053" height="4.649"/>
			<rect x="249.492" y="309.398" style="fill:#FFFFFF;" width="8.053" height="4.649"/>
			<rect x="228.439" y="319.838" style="fill:#FFFFFF;" width="8.053" height="4.649"/>
			<rect x="238.966" y="319.838" style="fill:#FFFFFF;" width="8.053" height="4.649"/>
			<rect x="249.492" y="319.838" style="fill:#FFFFFF;" width="8.053" height="4.649"/>
			<rect x="228.439" y="330.278" style="fill:#FFFFFF;" width="8.053" height="4.649"/>
			<rect x="238.966" y="330.278" style="fill:#FFFFFF;" width="8.053" height="4.649"/>
			<rect x="249.492" y="330.278" style="fill:#FFFFFF;" width="8.053" height="4.649"/>
			<rect x="231.138" y="271.768" style="fill:#3C74DE;" width="30.583" height="7.594"/>
			<rect x="236.454" y="264.642" style="fill:#3C74DE;" width="19.951" height="7.594"/>
			<rect x="245.378" y="255.02" style="fill:#FFFFFF;" width="2.105" height="9.622"/>
			<rect x="231.138" y="277.907" style="opacity:0.4;fill:#255FCC;" width="30.583" height="1.456"/>
			<rect x="236.454" y="270.536" style="opacity:0.4;fill:#255FCC;" width="19.951" height="1.232"/>
			<polygon style="opacity:0.4;fill:#255FCC;" points="264.203,279.362 264.203,401.076 254.897,401.076 254.897,279.362 
				252.417,279.362 252.417,271.769 247.1,271.769 247.1,264.641 256.406,264.641 256.406,271.769 261.72,271.769 261.72,279.362 
							"/>
		</g>
		<g>
			<defs>
				<rect id="SVGID_1_" x="159.634" y="180.306" width="131.832" height="221.04"/>
			</defs>
			<use xlink:href="#SVGID_1_"  style="overflow:visible;fill:#FFFFFF;"/>
			<clipPath id="SVGID_00000016789869251065245740000012441578115605072568_">
				<use xlink:href="#SVGID_1_"  style="overflow:visible;"/>
			</clipPath>
			<path style="clip-path:url(#SVGID_00000016789869251065245740000012441578115605072568_);fill:#F6FF73;" d="M268.062,437.869
				h-81.987c-9.226,0-16.706-7.479-16.706-16.706V209.55c0-9.226,7.479-16.706,16.706-16.706h81.987
				c9.226,0,16.706,7.479,16.706,16.706v211.613C284.768,430.39,277.289,437.869,268.062,437.869z"/>
			<path style="clip-path:url(#SVGID_00000016789869251065245740000012441578115605072568_);fill:#1C0E46;" d="M263.715,433.917
				h-73.293c-9.226,0-16.706-7.479-16.706-16.706V213.502c0-9.226,7.479-16.706,16.706-16.706h73.293
				c9.226,0,16.706,7.48,16.706,16.706v203.709C280.421,426.438,272.942,433.917,263.715,433.917z"/>
			<path style="clip-path:url(#SVGID_00000016789869251065245740000012441578115605072568_);fill:#9D8CD1;" d="M239.046,193.869
				l-7.701,7.701c-2.637,2.637-6.903,2.637-9.54,0l-7.701-7.701H239.046z"/>
			<path style="clip-path:url(#SVGID_00000016789869251065245740000012441578115605072568_);fill:#FFFFFF;" d="M228.106,197.473
				c0,0.982-0.796,1.778-1.778,1.778c-0.982,0-1.778-0.796-1.778-1.778c0-0.982,0.796-1.778,1.778-1.778
				C227.31,195.694,228.106,196.491,228.106,197.473z"/>
			<path style="clip-path:url(#SVGID_00000016789869251065245740000012441578115605072568_);fill:#FFFFFF;" d="M200.968,217.785
				c0,5.199-4.215,9.414-9.414,9.414c-5.199,0-9.414-4.215-9.414-9.414c0-5.199,4.215-9.414,9.414-9.414
				C196.754,208.372,200.968,212.586,200.968,217.785z"/>
			<path style="clip-path:url(#SVGID_00000016789869251065245740000012441578115605072568_);fill:#FFFFFF;" d="M265.939,213.675
				h-13.073c-0.81,0-1.466-0.656-1.466-1.466l0,0c0-0.81,0.656-1.466,1.466-1.466h13.073c0.81,0,1.466,0.657,1.466,1.466l0,0
				C267.406,213.019,266.749,213.675,265.939,213.675z"/>
			<path style="clip-path:url(#SVGID_00000016789869251065245740000012441578115605072568_);fill:#FFFFFF;" d="M265.939,218.581
				h-13.073c-0.81,0-1.466-0.656-1.466-1.466l0,0c0-0.81,0.656-1.466,1.466-1.466h13.073c0.81,0,1.466,0.656,1.466,1.466l0,0
				C267.406,217.925,266.749,218.581,265.939,218.581z"/>
			<path style="clip-path:url(#SVGID_00000016789869251065245740000012441578115605072568_);fill:#FFFFFF;" d="M265.939,223.488
				h-13.073c-0.81,0-1.466-0.656-1.466-1.466l0,0c0-0.81,0.656-1.466,1.466-1.466h13.073c0.81,0,1.466,0.656,1.466,1.466l0,0
				C267.406,222.832,266.749,223.488,265.939,223.488z"/>
			
				<rect x="173.649" y="232.874" style="clip-path:url(#SVGID_00000016789869251065245740000012441578115605072568_);fill:#74A2F8;" width="106.704" height="168.472"/>
			<path style="opacity:0.2;clip-path:url(#SVGID_00000016789869251065245740000012441578115605072568_);" d="M280.353,298.478
				v-13.437h-44.07v-21.44c0.042-0.005,5.465-0.005,10.797-0.004c5.662,0.002,10.25,4.592,10.25,10.253v11.188h10.072v-17.04
				c0-9.142-7.411-16.552-16.553-16.552h-14.567v-18.572h-18.179v18.572h-26.449l-4.031-18.572h-13.975l6.714,30.727h1.779h12.152
				h23.811v21.44h-44.455v13.437h44.455v18.632h-33.987v11.403V362.5h-10.468v12.646h44.455v26.199h18.179v-8.415h44.07v-10.67
				h-15.22v-35.568h15.22v-15.413h-15.22v-11.461h15.22v-5.533h-15.22v-15.808H280.353z M218.104,362.5h-22.228v-33.987h22.228
				V362.5z M257.33,382.26h-21.047v-35.568h21.047V382.26z M257.33,331.279h-21.047v-32.802h21.047V331.279z"/>
		</g>
		<path style="fill:#312457;" d="M635.879,401.68c0-1.035-127.992-1.874-285.879-1.874s-285.879,0.839-285.879,1.874
			c0,1.035,127.992,1.874,285.879,1.874S635.879,402.715,635.879,401.68z"/>
		<g>
			<path style="fill:#F53B3B;" d="M414.967,217.111c2.787-3.684,4.442-8.272,4.442-13.247c0-12.139-9.841-21.979-21.979-21.979
				c-12.139,0-21.979,9.84-21.979,21.979c0,4.975,1.655,9.563,4.442,13.247l17.537,26.721L414.967,217.111z"/>
			<circle style="fill:#FFFFFF;" cx="397.43" cy="203.864" r="11.513"/>
		</g>
		<g>
			<path style="fill:#FFFFFF;" d="M212.226,356.524c-0.814,0-1.617-0.371-2.14-1.073c-0.88-1.18-0.638-2.852,0.544-3.732
				c1.745-1.302,3.298-2.615,4.613-3.903c1.053-1.03,2.742-1.013,3.772,0.04c1.031,1.053,1.013,2.741-0.04,3.772
				c-1.486,1.454-3.221,2.924-5.158,4.368C213.34,356.352,212.78,356.524,212.226,356.524z"/>
			<path style="fill:#FFFFFF;" d="M362.723,378.175c-1.465,0-2.658-1.183-2.667-2.65c-0.009-1.473,1.176-2.675,2.65-2.685
				c3.344-0.022,6.883-0.313,10.817-0.886c0.549-0.08,1.1-0.166,1.65-0.253c1.449-0.237,2.822,0.758,3.054,2.214
				c0.232,1.454-0.759,2.822-2.214,3.054c-0.573,0.092-1.145,0.179-1.719,0.264c-4.181,0.609-7.96,0.918-11.553,0.942
				C362.735,378.175,362.729,378.175,362.723,378.175z M349.906,376.74c-0.217,0-0.437-0.027-0.656-0.082
				c-0.637-0.161-1.268-0.337-1.896-0.526c-3.701-1.117-7.301-2.763-10.698-4.895c-1.248-0.783-1.625-2.43-0.843-3.677
				c0.784-1.248,2.434-1.624,3.677-0.843c2.996,1.88,6.16,3.328,9.405,4.307c0.552,0.167,1.107,0.321,1.664,0.462
				c1.428,0.361,2.293,1.812,1.932,3.24C352.183,375.935,351.098,376.74,349.906,376.74z M388.218,374.225
				c-1.166,0-2.237-0.77-2.567-1.947c-0.398-1.419,0.429-2.891,1.847-3.289c4.039-1.133,8.058-2.51,11.944-4.094
				c1.36-0.557,2.921,0.099,3.477,1.464c0.555,1.365-0.1,2.92-1.464,3.477c-4.073,1.659-8.283,3.102-12.515,4.29
				C388.698,374.193,388.456,374.225,388.218,374.225z M412.12,364.469c-0.929,0-1.833-0.487-2.323-1.353
				c-0.725-1.283-0.274-2.91,1.008-3.635c3.152-1.784,5.345-3.505,6.901-5.418c0.53-0.653,1.002-1.375,1.403-2.147
				c0.678-1.307,2.287-1.819,3.596-1.139c1.308,0.678,1.817,2.288,1.139,3.596c-0.567,1.093-1.24,2.121-1.998,3.056
				c-2.614,3.214-6.053,5.361-8.412,6.695C413.016,364.357,412.565,364.469,412.12,364.469z M328.214,363.332
				c-0.727,0-1.452-0.296-1.979-0.877c-2.477-2.737-4.677-5.753-6.539-8.965c-0.418-0.721-0.819-1.45-1.203-2.187
				c-0.682-1.306-0.176-2.917,1.129-3.599c1.306-0.682,2.917-0.176,3.599,1.13c0.349,0.668,0.713,1.328,1.091,1.981
				c1.674,2.888,3.652,5.6,5.878,8.06c0.989,1.093,0.904,2.779-0.188,3.768C329.493,363.104,328.852,363.332,328.214,363.332z
				 M422.799,343.215c-1.202,0-2.294-0.819-2.59-2.04c-0.922-3.8-3.036-6.944-5.954-8.852c-1.233-0.806-1.578-2.46-0.773-3.693
				c0.807-1.234,2.461-1.576,3.693-0.773c4.058,2.654,6.977,6.937,8.22,12.061c0.347,1.432-0.532,2.874-1.964,3.221
				C423.219,343.19,423.007,343.215,422.799,343.215z M223.698,341.476c-0.173,0-0.347-0.017-0.523-0.051
				c-1.445-0.288-2.383-1.691-2.096-3.136c0.158-0.796,0.239-1.612,0.239-2.422c0-2.534-0.732-5.185-2.306-8.34
				c-0.657-1.318-0.121-2.919,1.197-3.577c1.32-0.656,2.919-0.121,3.577,1.197c1.929,3.869,2.866,7.376,2.866,10.72
				c0,1.16-0.115,2.325-0.341,3.462C226.059,340.597,224.945,341.476,223.698,341.476z M316.219,340.691
				c-1.179,0-2.259-0.789-2.576-1.984c-1.122-4.224-1.854-8.679-2.176-13.244c-0.103-1.47,1.004-2.744,2.474-2.849
				c1.463-0.095,2.745,1.003,2.849,2.473c0.297,4.229,0.973,8.351,2.009,12.25c0.378,1.423-0.469,2.884-1.893,3.262
				C316.676,340.662,316.446,340.691,316.219,340.691z M403.488,328.863c-0.138,0-0.278-0.01-0.42-0.032
				c-0.62-0.098-1.241-0.193-1.861-0.286c-3.818-0.578-7.764-1.176-11.348-2.666c-1.361-0.565-2.006-2.126-1.44-3.486
				c0.566-1.361,2.128-2.006,3.486-1.44c2.983,1.239,6.44,1.763,10.101,2.318c0.631,0.096,1.264,0.192,1.895,0.291
				c1.454,0.23,2.447,1.596,2.218,3.052C405.911,327.927,404.778,328.863,403.488,328.863z M214.568,318.022
				c-0.863,0-1.71-0.418-2.223-1.191c-2.333-3.511-4.948-7.62-6.444-11.952c-0.48-1.393,0.258-2.911,1.652-3.392
				c1.39-0.477,2.91,0.259,3.391,1.65c1.291,3.739,3.694,7.505,5.844,10.741c0.816,1.227,0.481,2.882-0.745,3.698
				C215.588,317.879,215.076,318.022,214.568,318.022z M382.347,317.014c-1.168,0-2.24-0.773-2.568-1.952
				c-0.429-1.541-0.647-3.163-0.647-4.82c0-3.449,0.964-6.914,2.714-9.756c0.774-1.255,2.417-1.645,3.67-0.873
				c1.255,0.772,1.645,2.415,0.873,3.67c-1.24,2.013-1.922,4.486-1.922,6.96c0,1.173,0.152,2.313,0.451,3.388
				c0.395,1.419-0.435,2.89-1.854,3.285C382.824,316.982,382.583,317.014,382.347,317.014z M314.142,315.014
				c-0.024,0-0.048,0-0.073-0.001c-1.472-0.04-2.634-1.265-2.594-2.738c0.034-1.296,0.061-2.642,0.061-4.009
				c-0.001-3.357-0.157-6.131-0.476-8.478c-0.198-1.46,0.824-2.804,2.284-3.003c1.464-0.198,2.805,0.824,3.003,2.284
				c0.351,2.588,0.523,5.596,0.524,9.196c0,1.416-0.026,2.812-0.063,4.154C316.769,313.867,315.582,315.014,314.142,315.014z
				 M394.814,298.144c-1.309,0-2.451-0.963-2.638-2.295c-0.205-1.459,0.811-2.808,2.269-3.013c2.316-0.326,4.637-0.368,6.816-0.382
				c2.158-0.016,4.325-0.013,6.491-0.001c1.473,0.008,2.661,1.21,2.653,2.682c-0.008,1.468-1.201,2.653-2.667,2.653
				c-0.005,0-0.009,0-0.015,0c-2.147-0.013-4.289-0.014-6.425,0.001c-1.999,0.013-4.118,0.05-6.109,0.33
				C395.063,298.135,394.937,298.144,394.814,298.144z M433.488,298.057c-4.358,0-8.737-0.057-12.853-0.116
				c-1.472-0.021-2.649-1.233-2.629-2.706c0.021-1.473,1.269-2.615,2.706-2.629c4.132,0.059,8.509,0.107,12.889,0.116l0.006,5.335
				C433.568,298.057,433.527,298.057,433.488,298.057z M446.54,297.843c-1.427,0-2.61-1.129-2.663-2.568
				c-0.055-1.471,1.094-2.71,2.566-2.764c4.604-0.172,8.773-0.447,12.742-0.841c1.467-0.152,2.773,0.924,2.917,2.39
				c0.146,1.466-0.924,2.772-2.39,2.917c-4.08,0.405-8.356,0.688-13.072,0.864C446.607,297.842,446.573,297.843,446.54,297.843z
				 M472.248,295.178c-1.257,0-2.375-0.892-2.617-2.172c-0.274-1.447,0.677-2.842,2.125-3.115c4.273-0.809,8.397-1.824,12.256-3.019
				c1.41-0.435,2.902,0.351,3.337,1.758c0.436,1.408-0.351,2.902-1.758,3.337c-4.052,1.255-8.374,2.32-12.846,3.165
				C472.579,295.164,472.412,295.178,472.248,295.178z M208.381,294.026c-0.315,0-0.633-0.056-0.944-0.174
				c-1.377-0.521-2.072-2.06-1.55-3.438c1.347-3.563,3.688-6.98,7.157-10.443c0.323-0.323,0.646-0.639,0.969-0.95
				c1.063-1.02,2.749-0.991,3.772,0.071c1.022,1.061,0.99,2.75-0.071,3.772c-0.302,0.291-0.602,0.586-0.902,0.884
				c-2.878,2.875-4.876,5.753-5.936,8.555C210.472,293.369,209.458,294.026,208.381,294.026z M308.42,290.629
				c-0.688,0-1.376-0.265-1.898-0.793c-2.931-2.968-6.109-5.732-9.445-8.212c-1.183-0.878-1.428-2.55-0.549-3.731
				c0.878-1.183,2.548-1.431,3.731-0.549c3.554,2.641,6.938,5.584,10.06,8.744c1.035,1.048,1.024,2.737-0.024,3.773
				C309.775,290.372,309.097,290.629,308.42,290.629z M496.86,287.431c-0.989,0-1.939-0.552-2.401-1.501
				c-0.645-1.324-0.093-2.921,1.232-3.565c4.194-2.04,7.388-4.355,9.497-6.88c0.944-1.132,2.628-1.282,3.757-0.338
				c1.13,0.944,1.281,2.627,0.338,3.757c-2.594,3.107-6.383,5.885-11.258,8.257C497.648,287.343,497.251,287.431,496.86,287.431z
				 M226.027,275.648c-0.889,0-1.758-0.444-2.264-1.253c-0.78-1.249-0.401-2.895,0.848-3.676c3.867-2.416,7.973-4.373,12.204-5.816
				c1.396-0.473,2.91,0.269,3.385,1.664c0.475,1.394-0.27,2.91-1.664,3.385c-3.844,1.311-7.578,3.091-11.097,5.291
				C226.999,275.518,226.51,275.648,226.027,275.648z M287.726,275.276c-0.416,0-0.838-0.098-1.232-0.304
				c-3.742-1.953-7.609-3.573-11.493-4.815c-1.402-0.448-2.177-1.949-1.727-3.353c0.448-1.403,1.95-2.177,3.353-1.728
				c4.173,1.335,8.324,3.073,12.335,5.167c1.306,0.681,1.813,2.292,1.132,3.598C289.617,274.754,288.687,275.276,287.726,275.276z
				 M510.83,267.852c-1.311,0-2.454-0.966-2.639-2.3c-0.468-3.371-2.236-6.942-4.978-10.058c-0.974-1.106-0.867-2.791,0.239-3.764
				c1.107-0.975,2.79-0.865,3.766,0.239c3.426,3.893,5.648,8.456,6.259,12.85c0.202,1.459-0.817,2.806-2.275,3.009
				C511.075,267.844,510.951,267.852,510.83,267.852z M263.202,267.524c-0.104,0-0.209-0.006-0.316-0.019
				c-4.158-0.49-8.321-0.541-12.335-0.147c-1.465,0.14-2.77-0.928-2.914-2.395c-0.144-1.466,0.928-2.771,2.395-2.914
				c4.391-0.429,8.944-0.376,13.479,0.159c1.463,0.173,2.509,1.498,2.336,2.961C265.687,266.526,264.536,267.524,263.202,267.524z
				 M495.028,248.538c-0.42,0-0.846-0.1-1.244-0.309c-3.415-1.804-7.275-3.199-11.47-4.146c-1.437-0.324-2.338-1.752-2.014-3.189
				c0.323-1.436,1.743-2.342,3.189-2.015c4.653,1.05,8.955,2.609,12.787,4.633c1.302,0.688,1.801,2.301,1.113,3.604
				C496.911,248.022,495.985,248.538,495.028,248.538z M470.052,242.799c-0.033,0-0.066-0.001-0.098-0.002
				c-3.421-0.124-7.754-0.221-12.881-0.288c-1.472-0.02-2.651-1.229-2.632-2.703c0.02-1.473,1.261-2.612,2.703-2.632
				c5.168,0.068,9.542,0.166,13.002,0.291c1.472,0.053,2.622,1.29,2.569,2.762C472.663,241.667,471.481,242.799,470.052,242.799z
				 M444.164,242.406c-0.003,0-0.006,0-0.01,0c-2.615-0.01-5.217-0.014-7.741-0.014l-5.183,0.005c-0.002,0-0.004,0-0.005,0
				c-1.471,0-2.664-1.191-2.667-2.662c-0.003-1.473,1.189-2.67,2.662-2.673l5.194-0.005c2.531,0,5.139,0.004,7.762,0.014
				c1.472,0.006,2.662,1.205,2.657,2.677C446.826,241.219,445.632,242.406,444.164,242.406z"/>
			<path style="fill:#FFFFFF;" d="M411.715,242.507c-1.46,0-2.651-1.176-2.666-2.64c-0.015-1.473,1.167-2.679,2.64-2.694
				c0,0,2.442-0.025,6.408-0.052c0.006,0,0.012,0,0.018,0c1.465,0,2.657,1.183,2.667,2.65c0.009,1.473-1.176,2.675-2.65,2.685
				c-3.951,0.027-6.386,0.051-6.389,0.051C411.734,242.507,411.724,242.507,411.715,242.507z"/>
		</g>
		<g>
			<path style="fill:#74A2F8;" d="M600.072,353.498v21.329c0,5.833-4.732,10.565-10.565,10.565H336.736
				c-5.833,0-10.565-4.732-10.565-10.565v-16.144c5.143-3.741,15.157-11.026,21.655-15.75h241.681
				C595.34,342.933,600.072,347.66,600.072,353.498z"/>
			<path style="fill:#74A2F8;" d="M362.054,391.796h-13.306c-3.551,0-6.429-2.878-6.429-6.429l0,0h19.735V391.796z"/>
			<path style="fill:#74A2F8;" d="M409.498,358.48h-80.037v-10.262c0-4.292,2.736-8.106,6.802-9.48l41.24-13.946l31.995,0.797
				V358.48z"/>
			<path style="fill:#F6FF73;" d="M355.872,347.886l-23.866,7.142c-1.766,0.528-3.542-0.794-3.542-2.637v-5.506
				c0-1.268,0.866-2.371,2.097-2.674l35.738-8.772c0.903-0.222,1.528,0.883,0.873,1.543l-10.136,10.207
				C356.713,347.515,356.313,347.755,355.872,347.886z"/>
			<polygon style="fill:#74A2F8;" points="495.964,290.553 567.13,295.637 594.041,323.547 597.588,346.695 495.964,346.695 			"/>
			<path style="fill:#74A2F8;" d="M378.3,346.695h117.663v-56.141h-21.105c-16.266,0-32.267,4.111-46.518,11.951l-48.395,26.623
				L378.3,346.695z"/>
			<polygon style="fill:#74A2F8;" points="573.746,301.985 566.37,301.985 566.37,297.051 579.428,297.051 			"/>
			<path style="fill:#170942;" d="M564.438,308.943c0,0-14.054-13.904-50.235-13.904c-36.181,0-56.514,2.99-56.514,2.99
				s-45.002,19.286-55.318,33.191c0,0-3.738,4.344,5.083,4.19c8.821-0.154,135.903-13.31,135.903-13.31
				S557.86,316.867,564.438,308.943z"/>
			<path style="fill:#2C1F53;" d="M491.983,299.878l-2.348,24.913l-60.701,5.98l2.093-16.645c0,0,20.97-11.861,29.024-12.758
				C468.105,300.471,491.983,299.878,491.983,299.878z"/>
			<path style="fill:#1C0E46;" d="M537.253,311.285c-2.965,0.424-2.118-3.812-4.236-4.66c-0.847-0.424-2.542,0.847-2.965,1.271
				c-2.118,3.813-1.271,7.625-5.931,9.319c-2.118,0.424-3.389-1.271-5.083-0.847c-5.791,1.524-11.58,2.175-17.055,3.522
				l-0.089,2.907l40.666-3.488c0,0,8.273-3.782,8.173-3.984c-0.1-0.202,0.001-10.468,0.001-10.468s-1.881-0.828-5.668-1.832
				C543.296,306.686,541.586,310.952,537.253,311.285z"/>
			<path style="fill:#2C1F53;" d="M502.592,299.878l-0.609,20.012c5.475-1.347,11.264-1.998,17.055-3.522
				c1.694-0.424,2.965,1.271,5.083,0.847c4.66-1.694,3.813-5.507,5.931-9.319c0.424-0.423,2.118-1.694,2.965-1.271
				c2.118,0.847,1.271,5.083,4.236,4.66c4.333-0.333,6.043-4.6,7.814-8.261C537.862,301.115,523.76,298.568,502.592,299.878z"/>
			<path style="fill:#F53B3B;" d="M595.083,330.348c-7.416,0-9.225,0-16.641,0c5.881,16.347,19.146,16.347,19.146,16.347
				L595.083,330.348z"/>
			<path style="fill:#170942;" d="M440.822,296.755c0,0,7.15,0.221,6.701,0c-0.448-0.221-55.019,30.033-55.019,30.033l-5.125-1.751
				C387.379,325.037,431.077,299.3,440.822,296.755z"/>
			<path style="opacity:0.2;" d="M600.074,363.601v11.225c0,5.833-4.732,10.565-10.565,10.565H336.738
				c-5.833,0-10.565-4.732-10.565-10.565v-11.225c0,5.833,4.732,10.565,10.565,10.565h252.771
				C595.342,374.165,600.074,369.434,600.074,363.601z"/>
			<polygon style="opacity:0.2;" points="542.835,326.788 401.585,348.712 495.964,346.695 			"/>
			<path style="fill:#8DB3F9;" d="M420.013,374.496c1.196-0.331,119.158-10.895,119.158-10.895l-44.116-3.19L420.013,374.496z"/>
			<g style="opacity:0.87;">
				<polygon style="fill:#170942;" points="498.179,379.362 419.66,379.362 414.054,348.429 415.605,334.015 416.447,334.106 
					414.909,348.398 420.367,378.514 497.038,378.514 494.191,369.097 497.934,295.215 498.78,295.258 495.045,368.993 				"/>
			</g>
			<g style="opacity:0.87;">
				<path style="fill:#170942;" d="M539.676,380.09l-42.075-0.729l0.015-0.847l41.351,0.716l1.731-9.81
					c0.034-0.133,2.737-9.72,13.746-13.188c10.41-3.279,7.47-16.46,7.34-17.02l-0.018-0.077l3.731-26.986l-1.441-3.025l0.765-0.364
					l1.549,3.254l-3.745,27.085c0.245,1.166,2.798,14.562-7.927,17.941c-10.552,3.325-13.15,12.472-13.175,12.565L539.676,380.09z"
					/>
			</g>
			
				<ellipse transform="matrix(0.2298 -0.9732 0.9732 0.2298 -72.4836 666.2888)" style="fill:#312457;" cx="384.704" cy="378.938" rx="21.604" ry="21.604"/>
			
				<ellipse transform="matrix(0.1602 -0.9871 0.9871 0.1602 -50.9632 697.9758)" style="fill:#827A99;" cx="384.704" cy="378.938" rx="12.858" ry="12.858"/>
			
				<ellipse transform="matrix(0.7071 -0.7071 0.7071 0.7071 -102.6293 510.1066)" style="fill:#312457;" cx="564.438" cy="378.938" rx="21.604" ry="21.604"/>
			
				<ellipse transform="matrix(0.7071 -0.7071 0.7071 0.7071 -102.6294 510.1066)" style="fill:#827A99;" cx="564.438" cy="378.938" rx="12.858" ry="12.858"/>
			<path style="fill:#1C0E46;" d="M438.976,315.098c-4.236-1.694-1.694,7.201-3.389,8.472c-1.792,1.672-3.887,2.704-6.171,3.363
				l-0.483,3.839l16.836-1.659C440.957,326.365,443.399,317.108,438.976,315.098z"/>
			<path style="fill:#1C0E46;" d="M489.809,315.521c-1.271-2.118-3.813,1.271-6.354,1.271c0-4.66-0.847-11.014-5.507-12.708
				c-4.236-1.694-9.319,0-11.437,4.236c-1.271,2.965-2.118,7.201,0.847,9.743c0.423,0.424,1.694,0,1.694,0
				c0.768,4.148-0.861,7.126-3.652,9.116l23.79-2.344l0.445-0.044l0.188-1.993l0.578-6.129
				C490.26,316.276,490.068,315.892,489.809,315.521z"/>
			<path style="fill:#74A2F8;" d="M429.665,332.962l-6.792-1.013c-1.64-0.244-2.86-1.948-2.86-3.826v-2.671
				c0-1.877,1.22-3.581,2.86-3.826l6.792-1.013c2.62-0.391,5,1.479,5,4.222v3.904C434.665,331.484,432.285,333.353,429.665,332.962z
				"/>
		</g>
		<g>
			<g>
				<path style="fill:#2C1F53;" d="M244.311,137.127c-3.313-7.41-5.239-6.595-5.066-8.113c0.201-1.769,2.29-2.749,2.615-4.498
					c0.257-1.387-0.674-2.593-1.377-3.662c-0.318-0.484-0.768-0.807-0.989-1.361c-0.227-0.569-0.259-1.22-0.165-1.823
					c0.478-3.088,2.699-5.577,0.26-8.563c-0.549-0.673-1.26-1.214-1.725-1.947c-0.876-1.381-0.712-3.072-1.065-4.606
					c-0.37-1.608-1.322-3.079-2.69-4.019c-1.259-0.865-2.82-1.238-4.313-1.03c-0.54,0.075-1.189,0.195-1.502,0.7
					c0,0-1.398-1.759-6.217-1.758c-2.798,0-5.605,1.45-7.171,3.87c-1.166,1.801-1.601,4.015-1.746,6.184
					c-0.161,2.404,0.004,4.832,0.488,7.189c0.194,0.946,0.438,1.942,0.153,2.863c-0.469,1.514-2.158,2.228-2.94,3.594
					c-0.712,1.244-0.501,2.983,0.486,4.003c0.699,0.722,1.798,1.247,1.86,2.271c0.052,0.861-0.704,1.531-1.442,1.922
					c-1.72,0.911-3.757,1.168-5.287,2.394c-1.41,1.13-2.19,2.966-2.392,4.81c-0.202,1.844,0.118,3.709,0.574,5.503
					c0.595,2.34,1.492,4.718,3.256,6.289c2.075,1.848,4.99,2.259,7.717,2.191c3.654-0.092,7.26-0.903,10.908-1.138
					c4-0.258,8.007,0.173,12.014,0.27c1.619-1.748,2.699-3.79,1.27-5.613C238.605,141.489,247.624,144.537,244.311,137.127z"/>
			</g>
			<path style="opacity:0.2;fill:#231F20;" d="M234.967,127.132c0.84-0.84,2.519-1.68,2.519-2.519c-0.84-5.879,0-10.078-0.84-15.956
				c0-5.349-8.343-8.609-13.009-4.092c-2.598-0.553-4.978,0.245-6.306,1.573c-4.199,6.718,0.84,12.597-2.519,19.315
				c0.84-0.84,1.68,0.84,2.519,0.84c0.84,1.68,0.84,3.359,0,5.039c-3.359,3.359-5.879,6.718-5.039,11.757
				c0.901,2.928,2.47,5.004,4.425,6.386c3.285-0.2,6.537-0.874,9.825-1.086c2.879-0.186,5.762-0.015,8.646,0.132
				c0.209-0.128,0.416-0.259,0.618-0.393C243.365,143.089,233.287,134.691,234.967,127.132z"/>
			<path style="fill:#F9DACF;" d="M212.262,128.535l1.498,19.809l-4.001,7.213c-2.664,0.803-2.915,0.408-5.733-0.346
				C205.428,143.645,212.262,128.535,212.262,128.535z"/>
			<path style="fill:#F9DACF;" d="M240.44,128.535l-1.498,19.809l4.001,7.213c2.664,0.803,2.915,0.408,5.733-0.346
				C247.273,143.645,240.44,128.535,240.44,128.535z"/>
			<path style="fill:#F53B3B;" d="M263.333,192.39h-44.513c-10.373-0.646-7.981-10.043-7.981-13.091l3.343-13.091l40.963,7.149
				c4.522,0,8.189,3.998,8.189,8.93V192.39z"/>
			<path style="fill:#F53B3B;" d="M226.361,174.937H213.76l0.576-22.136l-3.352-2.439c-2.008-1.461-2.943-3.986-2.369-6.403
				l3.656-15.405l14.091-4.165V174.937z"/>
			<path style="fill:#F53B3B;" d="M226.361,174.937h12.581l-0.555-22.136l3.352-2.439c2.009-1.461,2.943-3.986,2.369-6.403
				l-3.656-15.405l-14.091-4.165V174.937z"/>
			<path style="fill:#F53B3B;" d="M226.361,174.937H213.76l0.576-22.136l-3.352-2.439c-2.008-1.461-2.943-3.986-2.369-6.403
				l3.656-15.405l14.091-4.165V174.937z"/>
			<path style="fill:#F53B3B;" d="M226.361,174.937h12.581l-0.555-22.136l3.352-2.439c2.009-1.461,2.943-3.986,2.369-6.403
				l-3.656-15.405l-14.091-4.165V174.937z"/>
			<path style="opacity:0.1;fill:#231F20;" d="M238.386,152.801l3.352-2.439c2.008-1.462,2.943-3.986,2.369-6.403l-1.061-4.469
				c-0.128,0.952-0.302,1.878-0.522,2.759c-0.84,5.039-6.718,7.558-11.757,5.879c-2.519-1.68-4.199-5.879-7.558-4.199
				c-4.199,4.199-9.238,5.039-13.437,0.84c-0.383-0.459-0.709-0.945-1.008-1.442l-0.15,0.633c-0.573,2.417,0.361,4.941,2.369,6.403
				l3.352,2.439l-0.248,9.553c8.119-4.181,19.2-8.027,19.2,1.73c0,1.68-8.398-0.84-9.238,1.68c-1.68,3.359,4.199,1.68,5.879,3.359
				c-2.426,1.732-4.995,2.033-7.647,1.91c3.25,0.822,6.634,1.233,10.024,1.223c2.175-0.271,4.358-0.589,6.548-0.89L238.386,152.801z
				"/>
			<path style="fill:#F6CDBE;" d="M226.361,129.133L226.361,129.133c-1.834,0-3.32-1.486-3.32-3.32V114.9h6.64v10.913
				C229.681,127.646,228.194,129.133,226.361,129.133z"/>
			<path style="fill:#F9DACF;" d="M234.899,149.534l-3,4.949c0,0,9.983,9.117,14.946,7.842c2.59-0.665,2.453-1.981,1.83-7.114
				C244.274,156.693,234.899,149.534,234.899,149.534z"/>
			<path style="fill:#F5C4B3;" d="M229.679,114.903v9.629c0,2.538-1.487,4.599-3.317,4.599c-0.816,0-1.57-0.408-2.147-1.092
				c1.464-0.477,2.552-2.299,2.552-4.468v-8.667H229.679z"/>
			<path style="fill:#F6CDBE;" d="M233.211,114.963H219.51c-1.73,0-3.133-1.403-3.133-3.133l0,0c0-1.73,1.403-3.133,3.133-3.133
				h13.702c1.731,0,3.133,1.403,3.133,3.133l0,0C236.345,113.561,234.942,114.963,233.211,114.963z"/>
			<path style="fill:#F9DACF;" d="M228.37,123.717c-1.162,0.896-2.786,0.896-3.948,0c-2.328-1.796-5.886-5.019-5.886-7.939v-9.63
				c0-4.341,3.519-7.86,7.86-7.86h0c4.341,0,7.86,3.519,7.86,7.86v9.63C234.256,118.698,230.698,121.921,228.37,123.717z"/>
			<g>
				<path style="fill:#332E27;" d="M229.29,150.378h-5.788c-0.787,0-1.425-0.638-1.425-1.425v-14.754
					c0-0.787,0.638-1.426,1.426-1.426h5.787c0.787,0,1.426,0.638,1.426,1.426v14.754C230.715,149.74,230.077,150.378,229.29,150.378
					z"/>
				<path style="fill:#12100E;" d="M226.31,138.552L226.31,138.552c-0.616,0-1.115-0.499-1.115-1.115v-2
					c0-0.616,0.499-1.115,1.115-1.115l0,0c0.616,0,1.115,0.499,1.115,1.115v2C227.425,138.053,226.926,138.552,226.31,138.552z"/>
				<path style="fill:#F53B3B;" d="M226.74,135.363c0,0.237-0.192,0.43-0.43,0.43c-0.237,0-0.43-0.192-0.43-0.43
					s0.192-0.43,0.43-0.43C226.547,134.933,226.74,135.125,226.74,135.363z"/>
				<path style="fill:#F53B3B;" d="M226.568,136.544c0,0.143-0.116,0.258-0.258,0.258s-0.258-0.116-0.258-0.258
					c0-0.143,0.116-0.258,0.258-0.258S226.568,136.401,226.568,136.544z"/>
				<circle style="fill:#F53B3B;" cx="226.31" cy="137.46" r="0.258"/>
			</g>
			<g>
				<path style="fill:#F9DACF;" d="M231.899,154.482l3-4.949l-5.031-3.049c-1.331-0.807-3.063-0.382-3.87,0.949l0,0
					c-0.85,1.402-0.402,3.228,1,4.078L231.899,154.482z"/>
				<path style="fill:#F9DACF;" d="M230.529,147.337l0.145-0.238c0.042-0.703,0.11-1.672,0.042-2.255l4.184,4.69l-0.676,0.042
					L230.529,147.337z"/>
			</g>
			<path style="fill:#F9DACF;" d="M217.802,149.534l3,4.949c0,0-9.982,9.117-14.946,7.842c-2.59-0.665-2.453-1.981-1.83-7.114
				C208.427,156.693,217.802,149.534,217.802,149.534z"/>
			<g>
				<path style="fill:#F9DACF;" d="M220.802,154.482l-3-4.949l5.031-3.049c1.331-0.807,3.063-0.382,3.87,0.949l0,0
					c0.85,1.402,0.402,3.228-1,4.078L220.802,154.482z"/>
				<path style="fill:#F9DACF;" d="M222.172,147.337l-0.144-0.238c0.049-0.703-0.019-1.396,0.049-1.979l-4.275,4.414l0.676,0.042
					L222.172,147.337z"/>
			</g>
			<path style="fill:#F9DACF;" d="M255.713,230.912h2.964l4.213-45.101c0.323-3.454-2.081-6.462-5.163-6.462l0,0
				c-3.028,0-5.413,2.908-5.176,6.309L255.713,230.912z"/>
			<path style="fill:#2C1F53;" d="M234.743,110.252c-0.321-2.223,1.063-3.396,0.459-5.522c-0.575-2.026-1.691-4.409-3.269-5.196
				c0,0-4.828-2.14-7.834-1.843c-3.006,0.296-2.6,1.195-3.317,1.863c-0.717,0.668-1.228,1.638-1.619,2.653
				c-0.839,2.177-1.185,4.657-0.986,7.068c0.036,0.442,0.104,0.915,0.354,1.226c0.142,0.176,0.327,0.28,0.51,0.377
				c0.862,0.457,1.753,0.83,2.66,1.114c0.385,0.121,0.79,0.225,1.176,0.107c0.386-0.118,0.746-0.522,0.759-1.026
				c0.179,0.51,0.358,1.02,0.536,1.53c0.344-0.295,0.794-0.264,1.208-0.221c1.215,0.125,2.43,0.251,3.646,0.376
				c0.083-0.62,0.166-1.241,0.249-1.861c0.14,0.432,0.281,0.863,0.421,1.295c0.051,0.156,0.108,0.323,0.223,0.409
				c0.096,0.073,0.215,0.074,0.327,0.071c1.365-0.035,2.725-0.406,3.981-1.088c0.177-0.096,0.362-0.209,0.465-0.415
				C234.825,110.903,234.788,110.56,234.743,110.252z"/>
			<path style="fill:#875727;" d="M272.682,237.39h-12.186c0-2.125-1.058-3.855-2.368-3.855s-2.368,1.73-2.368,3.855h-1.319v-21.785
				h8.138v15.31h3.619C269.776,230.915,272.682,233.812,272.682,237.39z"/>
			<path style="fill:#F9DACF;" d="M238.818,230.912h2.964l4.213-45.101c0.323-3.454-2.081-6.462-5.163-6.462h0
				c-3.028,0-5.413,2.908-5.175,6.309L238.818,230.912z"/>
			<path style="fill:#875727;" d="M255.39,237.39h-12.186c0-2.125-1.058-3.855-2.368-3.855c-1.31,0-2.368,1.73-2.368,3.855h-1.319
				v-21.785h8.138v15.31h3.619C252.485,230.915,255.39,233.812,255.39,237.39z"/>
			<path style="fill:#F53B3B;" d="M207.469,130.323c-1.59,1.357-2.883,3.023-4.164,4.676c-0.632-0.619-1.489-1.29-2.308-0.955
				c-0.749,0.306-0.95,1.346-0.615,2.082c0.335,0.736,1.036,1.228,1.717,1.664c0.197,0.126,0.41,0.27,0.476,0.494
				c0.059,0.199-0.014,0.411-0.016,0.619c-0.009,0.605,0.595,1.076,1.196,1.142c0.601,0.066,1.191-0.164,1.753-0.39
				c0.043,1.068,1.137,1.968,2.194,1.806c0.378-0.058,0.754-0.23,1.128-0.149c0.277,0.06,0.504,0.25,0.745,0.398
				c0.717,0.439,1.644,0.514,2.422,0.197l2.184-13.271C211.974,127.59,209.327,128.737,207.469,130.323z"/>
			<path style="fill:#F53B3B;" d="M245.247,130.323c1.591,1.357,2.883,3.023,4.164,4.676c0.632-0.619,1.489-1.29,2.308-0.955
				c0.749,0.306,0.95,1.346,0.615,2.082c-0.335,0.736-1.036,1.228-1.717,1.664c-0.197,0.126-0.41,0.27-0.476,0.494
				c-0.059,0.199,0.014,0.411,0.016,0.619c0.009,0.605-0.595,1.076-1.196,1.142c-0.601,0.066-1.191-0.164-1.753-0.39
				c-0.043,1.068-1.137,1.968-2.193,1.806c-0.378-0.058-0.754-0.23-1.128-0.149c-0.277,0.06-0.504,0.25-0.746,0.398
				c-0.717,0.439-1.644,0.514-2.422,0.197l-2.185-13.271C240.742,127.59,243.389,128.737,245.247,130.323z"/>
			<path style="fill:#F53B3B;" d="M267.112,187.583c-0.111-0.96-0.328-1.931-0.842-2.749c-0.257-0.409-0.59-0.785-0.726-1.248
				c-0.118-0.403-0.075-0.832-0.088-1.252c-0.051-1.635-0.967-3.13-2.09-4.319c-2.134-2.259-5.13-3.683-8.229-3.913
				c-1.701-0.126-3.406,0.094-5.097,0.313c-5.666,0.735-11.332,1.47-16.997,2.205c-0.763,0.099-1.552,0.207-2.208,0.61
				c-0.656,0.403-1.143,1.186-0.956,1.933l3.661,11.568c-0.657,0.75-1.051,1.803-0.775,2.761c0.277,0.958,1.373,1.679,2.308,1.332
				c0.419-0.155,0.746-0.484,1.058-0.803c0.711-0.726,1.422-1.451,2.133-2.177c0.161-0.164,0.336-0.337,0.562-0.382
				c0.631-0.128,0.947,0.702,1.247,1.271c0.636,1.206,2.203,1.705,3.534,1.41c1.331-0.295,2.438-1.229,3.295-2.289
				c0.399,1.412,1.643,2.55,3.086,2.82c1.442,0.271,3.014-0.338,3.898-1.51c1.482,2.197,5.207,2.294,6.802,0.178
				c1.225,1.504,3.817,1.172,5.113-0.271C267.098,191.63,267.335,189.51,267.112,187.583z"/>
			<path style="fill:#F53B3B;" d="M267.112,187.583c-0.111-0.96-0.328-1.931-0.842-2.749c-0.257-0.409-0.59-0.785-0.726-1.248
				c-0.118-0.403-0.075-0.832-0.088-1.252c-0.051-1.635-0.967-3.13-2.09-4.319c-2.134-2.259-5.13-3.683-8.229-3.913
				c-1.701-0.126-3.406,0.094-5.097,0.313c-5.666,0.735-11.332,1.47-16.997,2.205c-0.763,0.099-1.552,0.207-2.208,0.61
				c-0.656,0.403-1.143,1.186-0.956,1.933l3.661,11.568c-0.657,0.75-1.051,1.803-0.775,2.761c0.277,0.958,1.373,1.679,2.308,1.332
				c0.419-0.155,0.746-0.484,1.058-0.803c0.711-0.726,1.422-1.451,2.133-2.177c0.161-0.164,0.336-0.337,0.562-0.382
				c0.631-0.128,0.947,0.702,1.247,1.271c0.636,1.206,2.203,1.705,3.534,1.41c1.331-0.295,2.438-1.229,3.295-2.289
				c0.399,1.412,1.643,2.55,3.086,2.82c1.442,0.271,3.014-0.338,3.898-1.51c1.482,2.197,5.207,2.294,6.802,0.178
				c1.225,1.504,3.817,1.172,5.113-0.271C267.098,191.63,267.335,189.51,267.112,187.583z"/>
			<path style="opacity:0.1;fill:#231F20;" d="M267.112,187.583c-0.111-0.96-0.328-1.931-0.842-2.749
				c-0.257-0.409-0.59-0.785-0.726-1.248c-0.118-0.403-0.075-0.832-0.088-1.252c-0.051-1.635-0.967-3.13-2.09-4.319
				c-0.572-0.605-1.208-1.144-1.888-1.622c1.03,4.094,2.627,7.768,1.202,12.045c0,3.359-5.039,3.359-7.558,1.68
				c-5.039-3.359-7.558,1.68-12.597,0.84c-1.679,0-0.84-1.68-0.84-2.519c-2.965,0.494-5.931,3.022-8.896,3.652
				c-0.132,0.46-0.157,0.943-0.024,1.403c0.277,0.958,1.373,1.679,2.308,1.332c0.419-0.155,0.746-0.484,1.058-0.803
				c0.711-0.726,1.422-1.451,2.133-2.177c0.161-0.164,0.336-0.337,0.562-0.382c0.631-0.128,0.947,0.702,1.247,1.271
				c0.636,1.206,2.203,1.705,3.534,1.41c1.331-0.295,2.438-1.229,3.295-2.289c0.399,1.412,1.643,2.55,3.086,2.82
				c1.442,0.271,3.014-0.338,3.898-1.51c1.482,2.197,5.207,2.294,6.802,0.178c1.225,1.504,3.817,1.172,5.113-0.271
				C267.098,191.63,267.335,189.51,267.112,187.583z"/>
			<path style="fill:#2C1F53;" d="M219.06,107.323"/>
			<path style="fill:#2C1F53;" d="M218.245,107.323c0,0,0.213,13.264,0.292,13.042c0.079-0.222,0.968-13.634,0.968-13.634
				L218.245,107.323z"/>
			<path style="fill:#2C1F53;" d="M233.885,107.915c0,0,0.213,13.264,0.292,13.042c0.079-0.222,0.968-13.635,0.968-13.635
				L233.885,107.915z"/>
		</g>
		<path style="fill:#F53B3B;" d="M214.07,355.146c0,2.312-1.874,4.186-4.187,4.186c-2.312,0-4.186-1.874-4.186-4.186
			c0-2.312,1.874-4.186,4.186-4.186C212.195,350.959,214.07,352.833,214.07,355.146z"/>
	</g>
</g>
</svg>
